<svg width="49" height="49" viewBox="0 0 49 49" fill="none" xmlns="http://www.w3.org/2000/svg">
<g clip-path="url(#clip0_8_34)">
<path d="M24.4973 49.533C37.975 49.533 48.8934 38.5377 48.8934 24.9651C48.8934 11.3926 37.975 0.397291 24.4973 0.397291C11.0197 0.397291 0.101273 11.3926 0.101273 24.9651C0.101273 38.5377 11.0197 49.533 24.4973 49.533Z" fill="url(#paint0_linear_8_34)"/>
<rect y="1.90735e-06" width="49" height="49" fill="url(#paint1_linear_8_34)"/>
<path opacity="0.2" fill-rule="evenodd" clip-rule="evenodd" d="M28.9807 8.88015L22.739 13.1818L8.78259 -7.32535L15.0243 -11.627L28.9807 8.88015Z" fill="url(#paint2_linear_8_34)"/>
<path opacity="0.2" fill-rule="evenodd" clip-rule="evenodd" d="M12.1428 13.256L5.90109 17.5577L-8.0553 -2.94023L-1.80438 -7.25119L12.1428 13.256Z" fill="url(#paint3_linear_8_34)"/>
<path opacity="0.2" fill-rule="evenodd" clip-rule="evenodd" d="M17.5283 11.5038L11.2866 15.8055L-2.66055 -4.7017L3.58116 -9.00339L17.5283 11.5038Z" fill="url(#paint4_linear_8_34)"/>
<path opacity="0.2" fill-rule="evenodd" clip-rule="evenodd" d="M23.8069 12.9501L17.5652 17.2518L3.61799 -3.24617L9.8597 -7.55713L23.8069 12.9501Z" fill="url(#paint5_linear_8_34)"/>
<path opacity="0.2" fill-rule="evenodd" clip-rule="evenodd" d="M41.0958 10.8085L34.8541 15.1102L20.907 -5.39701L27.1487 -9.6987L41.0958 10.8085Z" fill="url(#paint6_linear_8_34)"/>
<path opacity="0.2" fill-rule="evenodd" clip-rule="evenodd" d="M26.0808 8.88014L19.8391 13.1818L5.99315 -7.18629L12.2349 -11.488L26.0808 8.88014Z" fill="url(#paint7_linear_8_34)"/>
<path opacity="0.2" fill-rule="evenodd" clip-rule="evenodd" d="M52.2628 36.2478L46.0211 40.5495L32.166 20.1814L38.4077 15.8797L52.2628 36.2478Z" fill="url(#paint8_linear_8_34)"/>
<path opacity="0.444" fill-rule="evenodd" clip-rule="evenodd" d="M28.5388 16.6213L22.2971 20.9323L3.16689 -7.20483L9.4086 -11.5158L28.5388 16.6213Z" fill="url(#paint9_linear_8_34)"/>
<path opacity="0.444" fill-rule="evenodd" clip-rule="evenodd" d="M45.3214 64.1439L39.0797 68.4456L19.9495 40.3177L26.1912 36.016L45.3214 64.1439Z" fill="url(#paint10_linear_8_34)"/>
<path opacity="0.2" fill-rule="evenodd" clip-rule="evenodd" d="M47.1995 56.1246L40.9577 60.4263L27.1026 40.0674L33.3443 35.7657L47.1995 56.1246Z" fill="url(#paint11_linear_8_34)"/>
<path opacity="0.444" fill-rule="evenodd" clip-rule="evenodd" d="M17.4087 15.4161L11.167 19.7178L-7.94483 -8.3915L-1.70312 -12.6932L17.4087 15.4161Z" fill="url(#paint12_linear_8_34)"/>
<path opacity="0.444" fill-rule="evenodd" clip-rule="evenodd" d="M60.9533 36.8689L54.7116 41.1706L35.5906 13.0613L41.8323 8.75963L60.9533 36.8689Z" fill="url(#paint13_linear_8_34)"/>
<path opacity="0.444" fill-rule="evenodd" clip-rule="evenodd" d="M11.5536 29.4244L5.3119 33.7261L-13.8091 5.6168L-7.56738 1.31511L11.5536 29.4244Z" fill="url(#paint14_linear_8_34)"/>
<path opacity="0.444" fill-rule="evenodd" clip-rule="evenodd" d="M62.3711 43.9241L56.1293 48.2258L37.0083 20.1165L43.2501 15.8148L62.3711 43.9241Z" fill="url(#paint15_linear_8_34)"/>
<path opacity="0.444" fill-rule="evenodd" clip-rule="evenodd" d="M35.3144 8.95432L29.0727 13.256L9.95175 -14.8626L16.1935 -19.1643L35.3144 8.95432Z" fill="url(#paint16_linear_8_34)"/>
<path opacity="0.444" fill-rule="evenodd" clip-rule="evenodd" d="M37.4687 59.4713L31.227 63.773L12.106 35.6637L18.3477 31.362L37.4687 59.4713Z" fill="url(#paint17_linear_8_34)"/>
<path opacity="0.444" fill-rule="evenodd" clip-rule="evenodd" d="M28.235 8.50931L21.9933 12.811L2.87229 -15.2983L9.114 -19.6L28.235 8.50931Z" fill="url(#paint18_linear_8_34)"/>
<path opacity="0.444" fill-rule="evenodd" clip-rule="evenodd" d="M13.3488 49.3012L7.10708 53.6029L-6.2325 33.9857L0.0092096 29.684L13.3488 49.3012Z" fill="url(#paint19_linear_8_34)"/>
<path opacity="0.4" fill-rule="evenodd" clip-rule="evenodd" d="M57.8969 34.3658L51.6552 38.6768L37.6896 18.1325L43.9313 13.8308L57.8969 34.3658Z" fill="url(#paint20_linear_8_34)"/>
<path opacity="0.4" fill-rule="evenodd" clip-rule="evenodd" d="M30.334 57.543L24.0923 61.8447L10.1267 41.3097L16.3684 37.008L30.334 57.543Z" fill="url(#paint21_linear_8_34)"/>
<path d="M11.3511 26.4948C11.3511 26.7359 11.305 26.9584 11.2038 27.1531C11.1025 27.357 10.9644 27.5239 10.7803 27.6722C10.5962 27.8113 10.3844 27.9225 10.1359 28.006C9.88731 28.0894 9.62033 28.1265 9.32574 28.1265C8.97591 28.1265 8.65369 28.0801 8.37751 27.9782C8.10133 27.8855 7.81594 27.7186 7.53976 27.4961L8.00006 26.7359C8.22101 26.9213 8.42354 27.0603 8.60766 27.1438C8.78258 27.2272 8.9667 27.2736 9.16003 27.2736C9.39018 27.2736 9.5743 27.218 9.71239 27.0974C9.85048 26.9769 9.92413 26.8193 9.92413 26.6153C9.92413 26.5319 9.91492 26.4485 9.88731 26.3743C9.85969 26.3001 9.81366 26.2167 9.74922 26.1425C9.68477 26.0591 9.59271 25.9757 9.47303 25.8829C9.35335 25.7902 9.20606 25.6697 9.01273 25.5307C8.86543 25.4287 8.72734 25.3267 8.58925 25.2154C8.45116 25.1042 8.33148 24.9929 8.22101 24.8631C8.11054 24.7426 8.01848 24.6036 7.95403 24.446C7.88959 24.2976 7.85277 24.1215 7.85277 23.9268C7.85277 23.7043 7.8988 23.5003 7.99086 23.3149C8.08292 23.1295 8.2118 22.9719 8.36831 22.8421C8.52481 22.7123 8.71814 22.6103 8.94829 22.5362C9.16923 22.462 9.4178 22.4249 9.68477 22.4249C9.96096 22.4249 10.2371 22.462 10.4949 22.5362C10.7619 22.6103 11.0012 22.7216 11.2222 22.8606L10.7987 23.5467C10.5133 23.3427 10.2095 23.2407 9.89651 23.2407C9.70319 23.2407 9.54668 23.2871 9.4178 23.3891C9.28891 23.4911 9.23368 23.6209 9.23368 23.7692C9.23368 23.9175 9.28891 24.0473 9.39939 24.1586C9.50986 24.2791 9.70319 24.4367 9.97016 24.6499C10.2463 24.8539 10.4765 25.03 10.6514 25.1876C10.8355 25.336 10.9736 25.4843 11.0749 25.6141C11.1762 25.7532 11.2498 25.8829 11.2958 26.022C11.3327 26.1796 11.3511 26.3279 11.3511 26.4948ZM16.1198 25.2154C16.1198 25.4287 16.1014 25.6512 16.0554 25.8922C16.0093 26.1333 15.9357 26.365 15.8344 26.569C15.7332 26.773 15.5951 26.9491 15.4201 27.0789C15.2452 27.218 15.0335 27.2828 14.7757 27.2828C14.343 27.2828 14.0024 27.1067 13.7446 26.7637C13.4961 26.4114 13.3672 25.9386 13.3672 25.3267C13.3672 24.7055 13.4961 24.2049 13.7446 23.8434C13.9932 23.4725 14.343 23.2964 14.7757 23.2964C15.19 23.2964 15.5122 23.4725 15.7516 23.8155C16.0001 24.1586 16.1198 24.6221 16.1198 25.2154ZM17.6296 25.1598C17.6296 24.7519 17.5744 24.3811 17.4547 24.0566C17.335 23.7228 17.1785 23.4354 16.9668 23.1944C16.755 22.9533 16.4973 22.7679 16.2119 22.6381C15.9173 22.5083 15.5951 22.4342 15.2452 22.4342C14.8586 22.4342 14.518 22.5083 14.2142 22.6567C13.9196 22.805 13.6434 23.0368 13.3948 23.3613L13.3856 22.5732H11.9955V30.7131H13.3856V27.2736C13.5237 27.4312 13.6526 27.5702 13.7815 27.6722C13.9104 27.7835 14.0392 27.8669 14.1681 27.9411C14.297 28.006 14.4351 28.0616 14.5824 28.0894C14.7297 28.1172 14.8862 28.1358 15.0519 28.1358C15.4201 28.1358 15.7608 28.0616 16.083 27.9133C16.396 27.7649 16.6722 27.561 16.9023 27.2921C17.1325 27.0233 17.3166 26.7081 17.4455 26.3558C17.5652 25.9849 17.6296 25.5956 17.6296 25.1598ZM18.2464 27.9967H19.6733V20.0238H18.2464V27.9967ZM25.7401 27.9967V22.564H24.3132V25.4936C24.3132 25.7532 24.304 25.9571 24.2856 26.0962C24.2672 26.2352 24.2303 26.365 24.1751 26.4856C23.9726 26.9306 23.6043 27.1623 23.0704 27.1623C22.6561 27.1623 22.3615 27.014 22.1958 26.7081C22.1314 26.5968 22.0853 26.4577 22.0577 26.3187C22.0301 26.1703 22.0209 25.9664 22.0209 25.6883V22.5825H20.594V25.6697C20.594 25.8829 20.594 26.0591 20.6032 26.2074C20.6032 26.3558 20.6124 26.4856 20.6308 26.5968C20.6492 26.7081 20.6584 26.81 20.6768 26.8935C20.6952 26.9769 20.7228 27.0603 20.7597 27.1438C20.8886 27.4775 21.1003 27.7279 21.3949 27.904C21.6895 28.0709 22.0485 28.1543 22.472 28.1543C22.8494 28.1543 23.1901 28.0894 23.4755 27.9504C23.7608 27.8113 24.0462 27.5981 24.3224 27.2921V28.0152L25.7401 27.9967ZM31.8714 27.9967V24.9188C31.8714 24.7055 31.8714 24.5294 31.8622 24.3811C31.8622 24.2327 31.853 24.1029 31.8346 23.9917C31.8161 23.8804 31.8069 23.7877 31.7793 23.7043C31.7609 23.6209 31.7333 23.5374 31.7057 23.4632C31.5768 23.1388 31.365 22.8885 31.0705 22.7123C30.7759 22.5362 30.4168 22.4434 29.9933 22.4434C29.6159 22.4434 29.2753 22.5083 28.9899 22.6474C28.7045 22.7865 28.4191 22.9997 28.1429 23.3056V22.5825H26.7068V28.006H28.1429V25.0764C28.1429 24.8261 28.1521 24.6221 28.1705 24.483C28.189 24.344 28.2258 24.2142 28.2718 24.0844C28.3639 23.8712 28.5112 23.7043 28.6953 23.593C28.8886 23.4818 29.1188 23.4262 29.3857 23.4262C29.8 23.4262 30.0946 23.5745 30.2603 23.8804C30.3248 23.9917 30.3708 24.1308 30.3984 24.2698C30.426 24.4181 30.4352 24.6221 30.4352 24.9002V28.006L31.8714 27.9967ZM37.7633 27.6351L35.5998 24.9188L37.4318 22.9441L36.3547 22.4805L34.4491 24.7055H34.3018V20.0238H32.8656V27.9967H34.3018V25.1042L36.4468 28.0987L37.7633 27.6351ZM43.3053 25.6883V24.7983L38.9969 22.6196V23.593L42.3387 25.234L38.9969 26.8935V27.8484L43.3053 25.6883ZM39.4111 21.2104C39.1442 21.2104 38.9324 21.4237 38.9324 21.7018C38.9324 21.9799 39.1442 22.1931 39.4111 22.1931C39.6781 22.1931 39.8899 21.9799 39.8899 21.7018C39.8899 21.4329 39.6781 21.2104 39.4111 21.2104ZM39.4111 21.2939C39.6229 21.2939 39.7978 21.4793 39.7978 21.7111C39.7978 21.9428 39.6229 22.1282 39.4111 22.119C39.1994 22.119 39.0245 21.9336 39.0245 21.7018C39.0245 21.47 39.1994 21.2939 39.4111 21.2939ZM39.3191 21.7481H39.3743C39.448 21.7481 39.4756 21.7759 39.494 21.8408C39.5032 21.915 39.5216 21.9614 39.5308 21.9799H39.6229C39.6137 21.9614 39.6045 21.9336 39.5861 21.8408C39.5769 21.7574 39.54 21.7203 39.494 21.7111V21.7018C39.5492 21.6832 39.5953 21.6369 39.5953 21.572C39.5953 21.5164 39.5769 21.4793 39.5492 21.4607C39.5124 21.4329 39.4664 21.4237 39.3835 21.4237C39.3191 21.4237 39.2731 21.4329 39.227 21.4329V21.9799H39.3099L39.3191 21.7481ZM39.3191 21.4978C39.3375 21.4978 39.3559 21.4885 39.3835 21.4885C39.4756 21.4885 39.5124 21.5349 39.5124 21.5813C39.5124 21.6462 39.448 21.674 39.3835 21.674H39.3191V21.4978Z" fill="white"/>
</g>
<defs>
<linearGradient id="paint0_linear_8_34" x1="44.682" y1="12.0145" x2="5.03021" y2="37.1008" gradientUnits="userSpaceOnUse">
<stop stop-color="#EC0677"/>
<stop offset="0.1649" stop-color="#F05A22"/>
<stop offset="0.2486" stop-color="#F26A21"/>
<stop offset="0.3729" stop-color="#F58A1F"/>
<stop offset="0.4425" stop-color="#F37720"/>
<stop offset="0.5441" stop-color="#F16222"/>
<stop offset="0.6102" stop-color="#F05A22"/>
<stop offset="0.6666" stop-color="#F05627"/>
<stop offset="0.7295" stop-color="#EF4934"/>
<stop offset="0.7955" stop-color="#EE334A"/>
<stop offset="0.8632" stop-color="#ED1669"/>
<stop offset="0.9045" stop-color="#EC0080"/>
</linearGradient>
<linearGradient id="paint1_linear_8_34" x1="44.7707" y1="11.5852" x2="5.11016" y2="36.8537" gradientUnits="userSpaceOnUse">
<stop stop-color="#EC0677"/>
<stop offset="0.1649" stop-color="#F05A22"/>
<stop offset="0.2486" stop-color="#F26A21"/>
<stop offset="0.3729" stop-color="#F58A1F"/>
<stop offset="0.4425" stop-color="#F37720"/>
<stop offset="0.5441" stop-color="#F16222"/>
<stop offset="0.6102" stop-color="#F05A22"/>
<stop offset="0.6666" stop-color="#F05627"/>
<stop offset="0.7295" stop-color="#EF4934"/>
<stop offset="0.7955" stop-color="#EE334A"/>
<stop offset="0.8632" stop-color="#ED1669"/>
<stop offset="0.9045" stop-color="#EC0080"/>
</linearGradient>
<linearGradient id="paint2_linear_8_34" x1="11.9382" y1="-9.38197" x2="26.0115" y2="10.9249" gradientUnits="userSpaceOnUse">
<stop offset="0.5027" stop-color="#E20782"/>
<stop offset="1" stop-color="white" stop-opacity="0"/>
</linearGradient>
<linearGradient id="paint3_linear_8_34" x1="-2.06978" y1="-0.861187" x2="9.08806" y2="15.2389" gradientUnits="userSpaceOnUse">
<stop offset="0.0374" stop-color="#E20782" stop-opacity="0.1"/>
<stop offset="1" stop-color="#E20782"/>
</linearGradient>
<linearGradient id="paint4_linear_8_34" x1="3.32118" y1="-2.61628" x2="14.479" y2="13.4838" gradientUnits="userSpaceOnUse">
<stop offset="0.0374" stop-color="#E20782" stop-opacity="0.1"/>
<stop offset="1" stop-color="#E20782"/>
</linearGradient>
<linearGradient id="paint5_linear_8_34" x1="9.59633" y1="-1.16739" x2="20.7542" y2="14.9327" gradientUnits="userSpaceOnUse">
<stop offset="0.0374" stop-color="#E20782" stop-opacity="0.1"/>
<stop offset="1" stop-color="#E20782"/>
</linearGradient>
<linearGradient id="paint6_linear_8_34" x1="26.8893" y1="-3.31556" x2="38.0472" y2="12.7845" gradientUnits="userSpaceOnUse">
<stop offset="0.0374" stop-color="#E20782" stop-opacity="0.1"/>
<stop offset="1" stop-color="#E20782"/>
</linearGradient>
<linearGradient id="paint7_linear_8_34" x1="9.1007" y1="-9.30715" x2="23.0087" y2="10.7619" gradientUnits="userSpaceOnUse">
<stop stop-color="#E20782"/>
<stop offset="0.7718" stop-color="#E20782" stop-opacity="0.1"/>
</linearGradient>
<linearGradient id="paint8_linear_8_34" x1="35.2754" y1="18.0598" x2="49.1834" y2="38.1288" gradientUnits="userSpaceOnUse">
<stop offset="0.2128" stop-color="#E20782" stop-opacity="0.1"/>
<stop offset="1" stop-color="#E20782"/>
</linearGradient>
<linearGradient id="paint9_linear_8_34" x1="6.26143" y1="-9.30254" x2="25.4964" y2="18.401" gradientUnits="userSpaceOnUse">
<stop stop-color="#F89E1C" stop-opacity="0.2"/>
<stop offset="0.4534" stop-color="#F89E1C"/>
<stop offset="1" stop-color="#F89E1C" stop-opacity="0.15"/>
</linearGradient>
<linearGradient id="paint10_linear_8_34" x1="23.042" y1="38.2195" x2="42.2769" y2="65.923" gradientUnits="userSpaceOnUse">
<stop stop-color="#F89E1C" stop-opacity="0.2"/>
<stop offset="0.5539" stop-color="#F89E1C" stop-opacity="0.5"/>
<stop offset="1" stop-color="#F89E1C" stop-opacity="0.15"/>
</linearGradient>
<linearGradient id="paint11_linear_8_34" x1="30.2128" y1="37.9443" x2="44.1207" y2="58.0132" gradientUnits="userSpaceOnUse">
<stop offset="0.2282" stop-color="#E20782" stop-opacity="0.1"/>
<stop offset="1" stop-color="#E20782"/>
</linearGradient>
<linearGradient id="paint12_linear_8_34" x1="-4.85453" y1="-10.4907" x2="14.3662" y2="17.1923" gradientUnits="userSpaceOnUse">
<stop stop-color="#F89E1C" stop-opacity="0.2"/>
<stop offset="0.4418" stop-color="#F89E1C"/>
<stop offset="1" stop-color="#F89E1C" stop-opacity="0.15"/>
</linearGradient>
<linearGradient id="paint13_linear_8_34" x1="38.6885" y1="10.9657" x2="57.9092" y2="38.6487" gradientUnits="userSpaceOnUse">
<stop stop-color="#F89E1C" stop-opacity="0.2"/>
<stop offset="0.4418" stop-color="#F89E1C"/>
<stop offset="1" stop-color="#F89E1C" stop-opacity="0.15"/>
</linearGradient>
<linearGradient id="paint14_linear_8_34" x1="-10.7175" y1="3.51769" x2="8.50322" y2="31.2007" gradientUnits="userSpaceOnUse">
<stop stop-color="#F89E1C" stop-opacity="0.2"/>
<stop offset="0.4419" stop-color="#F89E1C"/>
<stop offset="1" stop-color="#F89E1C" stop-opacity="0.15"/>
</linearGradient>
<linearGradient id="paint15_linear_8_34" x1="40.1074" y1="18.0186" x2="59.3281" y2="45.7017" gradientUnits="userSpaceOnUse">
<stop stop-color="#F89E1C" stop-opacity="0.2"/>
<stop offset="0.4418" stop-color="#F89E1C"/>
<stop offset="1" stop-color="#F89E1C" stop-opacity="0.15"/>
</linearGradient>
<linearGradient id="paint16_linear_8_34" x1="13.0513" y1="-16.9564" x2="32.272" y2="10.7266" gradientUnits="userSpaceOnUse">
<stop stop-color="#F89E1C" stop-opacity="0.2"/>
<stop offset="0.4418" stop-color="#F89E1C"/>
<stop offset="1" stop-color="#F89E1C" stop-opacity="0.15"/>
</linearGradient>
<linearGradient id="paint17_linear_8_34" x1="15.2039" y1="33.5624" x2="34.4246" y2="61.2454" gradientUnits="userSpaceOnUse">
<stop stop-color="#F89E1C" stop-opacity="0.1"/>
<stop offset="0.4404" stop-color="#F89E1C" stop-opacity="0.5"/>
<stop offset="1" stop-color="#F89E1C" stop-opacity="0.15"/>
</linearGradient>
<linearGradient id="paint18_linear_8_34" x1="5.96473" y1="-17.3998" x2="25.1854" y2="10.2832" gradientUnits="userSpaceOnUse">
<stop stop-color="#EC008C" stop-opacity="0.2"/>
<stop offset="0.4418" stop-color="#EC008C"/>
<stop offset="0.9409" stop-color="#EC008C" stop-opacity="0"/>
</linearGradient>
<linearGradient id="paint19_linear_8_34" x1="-4.97708" y1="29.1459" x2="10.3981" y2="51.3361" gradientUnits="userSpaceOnUse">
<stop stop-color="#F89E1C" stop-opacity="0"/>
<stop offset="0.8492" stop-color="#F05A22"/>
</linearGradient>
<linearGradient id="paint20_linear_8_34" x1="38.8489" y1="13.1653" x2="54.9525" y2="36.4017" gradientUnits="userSpaceOnUse">
<stop offset="0.3432" stop-color="#E20782" stop-opacity="0.1"/>
<stop offset="1" stop-color="#E20782"/>
</linearGradient>
<linearGradient id="paint21_linear_8_34" x1="11.2886" y1="36.3395" x2="27.3923" y2="59.576" gradientUnits="userSpaceOnUse">
<stop offset="0.2895" stop-color="#F05A22"/>
<stop offset="0.8575" stop-color="#E20782" stop-opacity="0.1"/>
</linearGradient>
<clipPath id="clip0_8_34">
<rect width="49" height="49" rx="4" fill="white"/>
</clipPath>
</defs>
</svg>
