<svg width="48" height="48" viewBox="0 0 48 48" fill="none" xmlns="http://www.w3.org/2000/svg">
<g clip-path="url(#clip0_14_64)">
<path d="M23.9974 48.5221C37.2 48.5221 47.8956 37.7512 47.8956 24.4556C47.8956 11.1601 37.2 0.389181 23.9974 0.389181C10.7948 0.389181 0.0991974 11.1601 0.0991974 24.4556C0.0991974 37.7512 10.7948 48.5221 23.9974 48.5221Z" fill="url(#paint0_linear_14_64)"/>
<rect width="48" height="48" fill="url(#paint1_linear_14_64)"/>
<path opacity="0.2" fill-rule="evenodd" clip-rule="evenodd" d="M28.3892 8.69892L22.2749 12.9128L8.60335 -7.17586L14.7177 -11.3898L28.3892 8.69892Z" fill="url(#paint2_linear_14_64)"/>
<path opacity="0.2" fill-rule="evenodd" clip-rule="evenodd" d="M11.895 12.9855L5.78066 17.1994L-7.89091 -2.88022L-1.76756 -7.1032L11.895 12.9855Z" fill="url(#paint3_linear_14_64)"/>
<path opacity="0.2" fill-rule="evenodd" clip-rule="evenodd" d="M17.1706 11.269L11.0563 15.4829L-2.60625 -4.60574L3.50807 -8.81964L17.1706 11.269Z" fill="url(#paint4_linear_14_64)"/>
<path opacity="0.2" fill-rule="evenodd" clip-rule="evenodd" d="M23.321 12.6858L17.2067 16.8997L3.54415 -3.17992L9.65848 -7.4029L23.321 12.6858Z" fill="url(#paint5_linear_14_64)"/>
<path opacity="0.2" fill-rule="evenodd" clip-rule="evenodd" d="M40.2571 10.5879L34.1428 14.8018L20.4803 -5.28687L26.5946 -9.50077L40.2571 10.5879Z" fill="url(#paint6_linear_14_64)"/>
<path opacity="0.2" fill-rule="evenodd" clip-rule="evenodd" d="M25.5485 8.69892L19.4342 12.9128L5.87083 -7.03963L11.9852 -11.2535L25.5485 8.69892Z" fill="url(#paint7_linear_14_64)"/>
<path opacity="0.2" fill-rule="evenodd" clip-rule="evenodd" d="M51.1962 35.508L45.0819 39.7219L31.5095 19.7695L37.6238 15.5556L51.1962 35.508Z" fill="url(#paint8_linear_14_64)"/>
<path opacity="0.444" fill-rule="evenodd" clip-rule="evenodd" d="M27.9564 16.2821L21.842 20.5051L3.10226 -7.0578L9.21659 -11.2808L27.9564 16.2821Z" fill="url(#paint9_linear_14_64)"/>
<path opacity="0.444" fill-rule="evenodd" clip-rule="evenodd" d="M44.3965 62.8348L38.2822 67.0487L19.5424 39.4949L25.6567 35.281L44.3965 62.8348Z" fill="url(#paint10_linear_14_64)"/>
<path opacity="0.2" fill-rule="evenodd" clip-rule="evenodd" d="M46.2362 54.9792L40.1219 59.1931L26.5495 39.2497L32.6638 35.0358L46.2362 54.9792Z" fill="url(#paint11_linear_14_64)"/>
<path opacity="0.444" fill-rule="evenodd" clip-rule="evenodd" d="M17.0534 15.1015L10.9391 19.3154L-7.78269 -8.22025L-1.66837 -12.4342L17.0534 15.1015Z" fill="url(#paint12_linear_14_64)"/>
<path opacity="0.444" fill-rule="evenodd" clip-rule="evenodd" d="M59.7094 36.1165L53.5951 40.3304L34.8643 12.7948L40.9786 8.58086L59.7094 36.1165Z" fill="url(#paint13_linear_14_64)"/>
<path opacity="0.444" fill-rule="evenodd" clip-rule="evenodd" d="M11.3178 28.8239L5.20349 33.0378L-13.5273 5.50217L-7.41295 1.28827L11.3178 28.8239Z" fill="url(#paint14_linear_14_64)"/>
<path opacity="0.444" fill-rule="evenodd" clip-rule="evenodd" d="M61.0982 43.0277L54.9839 47.2416L36.2531 19.7059L42.3674 15.492L61.0982 43.0277Z" fill="url(#paint15_linear_14_64)"/>
<path opacity="0.444" fill-rule="evenodd" clip-rule="evenodd" d="M34.5937 8.77157L28.4794 12.9855L9.74866 -14.5593L15.863 -18.7732L34.5937 8.77157Z" fill="url(#paint16_linear_14_64)"/>
<path opacity="0.444" fill-rule="evenodd" clip-rule="evenodd" d="M36.704 58.2576L30.5897 62.4715L11.8589 34.9359L17.9732 30.722L36.704 58.2576Z" fill="url(#paint17_linear_14_64)"/>
<path opacity="0.444" fill-rule="evenodd" clip-rule="evenodd" d="M27.6588 8.33565L21.5444 12.5495L2.81367 -14.9861L8.928 -19.2L27.6588 8.33565Z" fill="url(#paint18_linear_14_64)"/>
<path opacity="0.444" fill-rule="evenodd" clip-rule="evenodd" d="M13.0764 48.295L6.96204 52.5089L-6.10531 33.2921L0.00901777 29.0782L13.0764 48.295Z" fill="url(#paint19_linear_14_64)"/>
<path opacity="0.4" fill-rule="evenodd" clip-rule="evenodd" d="M56.7153 33.6644L50.601 37.8874L36.9204 17.7624L43.0348 13.5485L56.7153 33.6644Z" fill="url(#paint20_linear_14_64)"/>
<path opacity="0.4" fill-rule="evenodd" clip-rule="evenodd" d="M29.7149 56.3687L23.6006 60.5826L9.92001 40.4666L16.0343 36.2527L29.7149 56.3687Z" fill="url(#paint21_linear_14_64)"/>
<path d="M11.1194 25.9541C11.1194 26.1902 11.0743 26.4082 10.9751 26.5989C10.8759 26.7987 10.7407 26.9622 10.5603 27.1075C10.3799 27.2437 10.1725 27.3527 9.92902 27.4344C9.68552 27.5162 9.424 27.5525 9.13542 27.5525C8.79273 27.5525 8.47709 27.5071 8.20654 27.4072C7.936 27.3164 7.65643 27.1529 7.38589 26.9349L7.8368 26.1902C8.05323 26.3719 8.25163 26.5081 8.432 26.5898C8.60334 26.6716 8.78371 26.717 8.97309 26.717C9.19854 26.717 9.37891 26.6625 9.51418 26.5444C9.64945 26.4264 9.7216 26.272 9.7216 26.0722C9.7216 25.9904 9.71258 25.9087 9.68552 25.8361C9.65847 25.7634 9.61338 25.6817 9.55025 25.609C9.48712 25.5273 9.39694 25.4455 9.27971 25.3547C9.16247 25.2639 9.01818 25.1458 8.8288 25.0096C8.68451 24.9097 8.54923 24.8098 8.41396 24.7008C8.27869 24.5919 8.16145 24.4829 8.05323 24.3557C7.94502 24.2377 7.85483 24.1014 7.79171 23.9471C7.72858 23.8018 7.69251 23.6292 7.69251 23.4385C7.69251 23.2205 7.7376 23.0207 7.82778 22.8391C7.91796 22.6575 8.04421 22.5031 8.19752 22.3759C8.35083 22.2488 8.54022 22.1489 8.76567 22.0762C8.98211 22.0036 9.2256 21.9673 9.48713 21.9673C9.75767 21.9673 10.0282 22.0036 10.2807 22.0762C10.5423 22.1489 10.7767 22.2579 10.9932 22.3941L10.5783 23.0661C10.2988 22.8663 10.0012 22.7664 9.69454 22.7664C9.50516 22.7664 9.35185 22.8119 9.2256 22.9118C9.09934 23.0116 9.04523 23.1388 9.04523 23.2841C9.04523 23.4294 9.09934 23.5565 9.20756 23.6655C9.31578 23.7836 9.50516 23.938 9.76669 24.1469C10.0372 24.3467 10.2627 24.5192 10.434 24.6736C10.6144 24.8189 10.7497 24.9642 10.8489 25.0914C10.9481 25.2276 11.0202 25.3547 11.0653 25.4909C11.1014 25.6453 11.1194 25.7906 11.1194 25.9541ZM15.7908 24.7008C15.7908 24.9097 15.7728 25.1277 15.7277 25.3638C15.6826 25.5999 15.6105 25.827 15.5113 26.0268C15.4121 26.2266 15.2768 26.3991 15.1055 26.5263C14.9341 26.6625 14.7267 26.7261 14.4742 26.7261C14.0503 26.7261 13.7167 26.5535 13.4641 26.2175C13.2207 25.8724 13.0944 25.4092 13.0944 24.8098C13.0944 24.2013 13.2207 23.7109 13.4641 23.3568C13.7076 22.9935 14.0503 22.8209 14.4742 22.8209C14.88 22.8209 15.1956 22.9935 15.4301 23.3295C15.6736 23.6655 15.7908 24.1196 15.7908 24.7008ZM17.2698 24.6464C17.2698 24.2468 17.2157 23.8835 17.0985 23.5656C16.9812 23.2387 16.8279 22.9572 16.6205 22.721C16.4131 22.4849 16.1606 22.3033 15.881 22.1761C15.5924 22.049 15.2768 21.9763 14.9341 21.9763C14.5553 21.9763 14.2217 22.049 13.9241 22.1943C13.6355 22.3396 13.3649 22.5666 13.1215 22.8845L13.1124 22.1126H11.7507V30.0863H13.1124V26.717C13.2477 26.8714 13.374 27.0076 13.5002 27.1075C13.6265 27.2165 13.7527 27.2982 13.879 27.3709C14.0052 27.4344 14.1405 27.4889 14.2848 27.5162C14.4291 27.5434 14.5824 27.5616 14.7447 27.5616C15.1055 27.5616 15.4391 27.4889 15.7548 27.3436C16.0614 27.1983 16.3319 26.9985 16.5574 26.7351C16.7828 26.4718 16.9632 26.163 17.0895 25.8179C17.2067 25.4546 17.2698 25.0732 17.2698 24.6464ZM17.874 27.4253H19.2718V19.6151H17.874V27.4253ZM25.2148 27.4253V22.1035H23.817V24.9733C23.817 25.2276 23.808 25.4274 23.79 25.5636C23.7719 25.6998 23.7359 25.827 23.6817 25.945C23.4833 26.381 23.1226 26.608 22.5996 26.608C22.1937 26.608 21.9052 26.4627 21.7428 26.163C21.6797 26.054 21.6346 25.9178 21.6076 25.7816C21.5805 25.6363 21.5715 25.4365 21.5715 25.164V22.1216H20.1737V25.1458C20.1737 25.3547 20.1737 25.5273 20.1827 25.6726C20.1827 25.8179 20.1917 25.945 20.2097 26.054C20.2278 26.163 20.2368 26.2629 20.2548 26.3446C20.2729 26.4264 20.2999 26.5081 20.336 26.5898C20.4623 26.9168 20.6697 27.162 20.9583 27.3345C21.2468 27.498 21.5985 27.5797 22.0134 27.5797C22.3831 27.5797 22.7168 27.5162 22.9964 27.3799C23.2759 27.2437 23.5555 27.0348 23.826 26.7351V27.4435L25.2148 27.4253ZM31.2209 27.4253V24.4102C31.2209 24.2013 31.2209 24.0288 31.2119 23.8835C31.2119 23.7382 31.2029 23.611 31.1849 23.5021C31.1668 23.3931 31.1578 23.3023 31.1308 23.2205C31.1127 23.1388 31.0857 23.0571 31.0586 22.9844C30.9324 22.6665 30.7249 22.4213 30.4364 22.2488C30.1478 22.0762 29.7961 21.9854 29.3812 21.9854C29.0115 21.9854 28.6778 22.049 28.3983 22.1852C28.1187 22.3214 27.8391 22.5303 27.5686 22.83V22.1216H26.1617V27.4344H27.5686V24.5646C27.5686 24.3194 27.5776 24.1196 27.5956 23.9834C27.6137 23.8472 27.6497 23.72 27.6948 23.5929C27.785 23.384 27.9293 23.2205 28.1097 23.1115C28.2991 23.0026 28.5245 22.9481 28.786 22.9481C29.1919 22.9481 29.4804 23.0934 29.6428 23.3931C29.7059 23.5021 29.751 23.6383 29.778 23.7745C29.8051 23.9198 29.8141 24.1196 29.8141 24.3921V27.4344L31.2209 27.4253ZM36.9926 27.0712L34.8733 24.4102L36.6679 22.4758L35.6128 22.0217L33.746 24.2014H33.6017V19.6151H32.1949V27.4253H33.6017V24.5919L35.703 27.5252L36.9926 27.0712ZM42.4215 25.164V24.2922L38.201 22.158V23.1115L41.4746 24.719L38.201 26.3446V27.28L42.4215 25.164ZM38.6068 20.7776C38.3453 20.7776 38.1379 20.9864 38.1379 21.2589C38.1379 21.5313 38.3453 21.7402 38.6068 21.7402C38.8684 21.7402 39.0758 21.5313 39.0758 21.2589C39.0758 20.9955 38.8684 20.7776 38.6068 20.7776ZM38.6068 20.8593C38.8143 20.8593 38.9856 21.0409 38.9856 21.268C38.9856 21.495 38.8143 21.6766 38.6068 21.6676C38.3994 21.6676 38.2281 21.4859 38.2281 21.2589C38.2281 21.0318 38.3994 20.8593 38.6068 20.8593ZM38.5167 21.3043H38.5708C38.6429 21.3043 38.67 21.3315 38.688 21.3951C38.697 21.4678 38.7151 21.5132 38.7241 21.5313H38.8143C38.8052 21.5132 38.7962 21.4859 38.7782 21.3951C38.7692 21.3134 38.7331 21.277 38.688 21.268V21.2589C38.7421 21.2407 38.7872 21.1953 38.7872 21.1317C38.7872 21.0773 38.7692 21.0409 38.7421 21.0228C38.706 20.9955 38.6609 20.9864 38.5798 20.9864C38.5167 20.9864 38.4716 20.9955 38.4265 20.9955V21.5313H38.5076L38.5167 21.3043ZM38.5167 21.0591C38.5347 21.0591 38.5527 21.05 38.5798 21.05C38.67 21.05 38.706 21.0954 38.706 21.1408C38.706 21.2044 38.6429 21.2316 38.5798 21.2316H38.5167V21.0591Z" fill="white"/>
</g>
<defs>
<linearGradient id="paint0_linear_14_64" x1="43.7701" y1="11.7693" x2="4.92755" y2="36.3437" gradientUnits="userSpaceOnUse">
<stop stop-color="#EC0677"/>
<stop offset="0.1649" stop-color="#F05A22"/>
<stop offset="0.2486" stop-color="#F26A21"/>
<stop offset="0.3729" stop-color="#F58A1F"/>
<stop offset="0.4425" stop-color="#F37720"/>
<stop offset="0.5441" stop-color="#F16222"/>
<stop offset="0.6102" stop-color="#F05A22"/>
<stop offset="0.6666" stop-color="#F05627"/>
<stop offset="0.7295" stop-color="#EF4934"/>
<stop offset="0.7955" stop-color="#EE334A"/>
<stop offset="0.8632" stop-color="#ED1669"/>
<stop offset="0.9045" stop-color="#EC0080"/>
</linearGradient>
<linearGradient id="paint1_linear_14_64" x1="43.857" y1="11.3487" x2="5.00587" y2="36.1015" gradientUnits="userSpaceOnUse">
<stop stop-color="#EC0677"/>
<stop offset="0.1649" stop-color="#F05A22"/>
<stop offset="0.2486" stop-color="#F26A21"/>
<stop offset="0.3729" stop-color="#F58A1F"/>
<stop offset="0.4425" stop-color="#F37720"/>
<stop offset="0.5441" stop-color="#F16222"/>
<stop offset="0.6102" stop-color="#F05A22"/>
<stop offset="0.6666" stop-color="#F05627"/>
<stop offset="0.7295" stop-color="#EF4934"/>
<stop offset="0.7955" stop-color="#EE334A"/>
<stop offset="0.8632" stop-color="#ED1669"/>
<stop offset="0.9045" stop-color="#EC0080"/>
</linearGradient>
<linearGradient id="paint2_linear_14_64" x1="11.6946" y1="-9.1905" x2="25.4806" y2="10.7019" gradientUnits="userSpaceOnUse">
<stop offset="0.5027" stop-color="#E20782"/>
<stop offset="1" stop-color="white" stop-opacity="0"/>
</linearGradient>
<linearGradient id="paint3_linear_14_64" x1="-2.02755" y1="-0.843611" x2="8.90259" y2="14.9279" gradientUnits="userSpaceOnUse">
<stop offset="0.0374" stop-color="#E20782" stop-opacity="0.1"/>
<stop offset="1" stop-color="#E20782"/>
</linearGradient>
<linearGradient id="paint4_linear_14_64" x1="3.2534" y1="-2.56288" x2="14.1835" y2="13.2086" gradientUnits="userSpaceOnUse">
<stop offset="0.0374" stop-color="#E20782" stop-opacity="0.1"/>
<stop offset="1" stop-color="#E20782"/>
</linearGradient>
<linearGradient id="paint5_linear_14_64" x1="9.40049" y1="-1.14356" x2="20.3306" y2="14.6279" gradientUnits="userSpaceOnUse">
<stop offset="0.0374" stop-color="#E20782" stop-opacity="0.1"/>
<stop offset="1" stop-color="#E20782"/>
</linearGradient>
<linearGradient id="paint6_linear_14_64" x1="26.3405" y1="-3.24789" x2="37.2707" y2="12.5236" gradientUnits="userSpaceOnUse">
<stop offset="0.0374" stop-color="#E20782" stop-opacity="0.1"/>
<stop offset="1" stop-color="#E20782"/>
</linearGradient>
<linearGradient id="paint7_linear_14_64" x1="8.91497" y1="-9.11721" x2="22.5392" y2="10.5422" gradientUnits="userSpaceOnUse">
<stop stop-color="#E20782"/>
<stop offset="0.7718" stop-color="#E20782" stop-opacity="0.1"/>
</linearGradient>
<linearGradient id="paint8_linear_14_64" x1="34.5555" y1="17.6913" x2="48.1796" y2="37.3506" gradientUnits="userSpaceOnUse">
<stop offset="0.2128" stop-color="#E20782" stop-opacity="0.1"/>
<stop offset="1" stop-color="#E20782"/>
</linearGradient>
<linearGradient id="paint9_linear_14_64" x1="6.13365" y1="-9.1127" x2="24.9761" y2="18.0254" gradientUnits="userSpaceOnUse">
<stop stop-color="#F89E1C" stop-opacity="0.2"/>
<stop offset="0.4534" stop-color="#F89E1C"/>
<stop offset="1" stop-color="#F89E1C" stop-opacity="0.15"/>
</linearGradient>
<linearGradient id="paint10_linear_14_64" x1="22.5718" y1="37.4395" x2="41.4141" y2="64.5776" gradientUnits="userSpaceOnUse">
<stop stop-color="#F89E1C" stop-opacity="0.2"/>
<stop offset="0.5539" stop-color="#F89E1C" stop-opacity="0.5"/>
<stop offset="1" stop-color="#F89E1C" stop-opacity="0.15"/>
</linearGradient>
<linearGradient id="paint11_linear_14_64" x1="29.5962" y1="37.1699" x2="43.2203" y2="56.8293" gradientUnits="userSpaceOnUse">
<stop offset="0.2282" stop-color="#E20782" stop-opacity="0.1"/>
<stop offset="1" stop-color="#E20782"/>
</linearGradient>
<linearGradient id="paint12_linear_14_64" x1="-4.75546" y1="-10.2766" x2="14.073" y2="16.8415" gradientUnits="userSpaceOnUse">
<stop stop-color="#F89E1C" stop-opacity="0.2"/>
<stop offset="0.4418" stop-color="#F89E1C"/>
<stop offset="1" stop-color="#F89E1C" stop-opacity="0.15"/>
</linearGradient>
<linearGradient id="paint13_linear_14_64" x1="37.899" y1="10.742" x2="56.7274" y2="37.86" gradientUnits="userSpaceOnUse">
<stop stop-color="#F89E1C" stop-opacity="0.2"/>
<stop offset="0.4418" stop-color="#F89E1C"/>
<stop offset="1" stop-color="#F89E1C" stop-opacity="0.15"/>
</linearGradient>
<linearGradient id="paint14_linear_14_64" x1="-10.4987" y1="3.44589" x2="8.32969" y2="30.564" gradientUnits="userSpaceOnUse">
<stop stop-color="#F89E1C" stop-opacity="0.2"/>
<stop offset="0.4419" stop-color="#F89E1C"/>
<stop offset="1" stop-color="#F89E1C" stop-opacity="0.15"/>
</linearGradient>
<linearGradient id="paint15_linear_14_64" x1="39.2889" y1="17.6509" x2="58.1173" y2="44.769" gradientUnits="userSpaceOnUse">
<stop stop-color="#F89E1C" stop-opacity="0.2"/>
<stop offset="0.4418" stop-color="#F89E1C"/>
<stop offset="1" stop-color="#F89E1C" stop-opacity="0.15"/>
</linearGradient>
<linearGradient id="paint16_linear_14_64" x1="12.7849" y1="-16.6103" x2="31.6134" y2="10.5077" gradientUnits="userSpaceOnUse">
<stop stop-color="#F89E1C" stop-opacity="0.2"/>
<stop offset="0.4418" stop-color="#F89E1C"/>
<stop offset="1" stop-color="#F89E1C" stop-opacity="0.15"/>
</linearGradient>
<linearGradient id="paint17_linear_14_64" x1="14.8936" y1="32.8775" x2="33.7221" y2="59.9955" gradientUnits="userSpaceOnUse">
<stop stop-color="#F89E1C" stop-opacity="0.1"/>
<stop offset="0.4404" stop-color="#F89E1C" stop-opacity="0.5"/>
<stop offset="1" stop-color="#F89E1C" stop-opacity="0.15"/>
</linearGradient>
<linearGradient id="paint18_linear_14_64" x1="5.843" y1="-17.0447" x2="24.6714" y2="10.0734" gradientUnits="userSpaceOnUse">
<stop stop-color="#EC008C" stop-opacity="0.2"/>
<stop offset="0.4418" stop-color="#EC008C"/>
<stop offset="0.9409" stop-color="#EC008C" stop-opacity="0"/>
</linearGradient>
<linearGradient id="paint19_linear_14_64" x1="-4.87551" y1="28.5511" x2="10.1859" y2="50.2884" gradientUnits="userSpaceOnUse">
<stop stop-color="#F89E1C" stop-opacity="0"/>
<stop offset="0.8492" stop-color="#F05A22"/>
</linearGradient>
<linearGradient id="paint20_linear_14_64" x1="38.0561" y1="12.8966" x2="53.831" y2="35.6588" gradientUnits="userSpaceOnUse">
<stop offset="0.3432" stop-color="#E20782" stop-opacity="0.1"/>
<stop offset="1" stop-color="#E20782"/>
</linearGradient>
<linearGradient id="paint21_linear_14_64" x1="11.0582" y1="35.5979" x2="26.8333" y2="58.3601" gradientUnits="userSpaceOnUse">
<stop offset="0.2895" stop-color="#F05A22"/>
<stop offset="0.8575" stop-color="#E20782" stop-opacity="0.1"/>
</linearGradient>
<clipPath id="clip0_14_64">
<rect width="48" height="48" rx="24" fill="white"/>
</clipPath>
</defs>
</svg>
