<svg width="48" height="48" viewBox="0 0 48 48" fill="none" xmlns="http://www.w3.org/2000/svg">
<rect width="48" height="48" fill="#E5E5E5"/>
<g clip-path="url(#clip0_0_1)">
<path d="M7.54223 25.2665C7.54223 25.5338 7.48265 25.7822 7.36349 26.0119C7.24433 26.2383 7.0755 26.4332 6.86361 26.5905C6.64844 26.7509 6.39358 26.8735 6.09885 26.9615C5.80426 27.0496 5.47988 27.0936 5.12895 27.0936C4.70845 27.0936 4.33117 27.0401 4.00026 26.9301C3.66924 26.8232 3.33492 26.6408 3.00049 26.3891L3.55342 25.5368C3.81822 25.7475 4.05646 25.9014 4.2718 25.9991C4.48367 26.0966 4.70213 26.1438 4.92731 26.1438C5.20205 26.1438 5.42052 26.0777 5.58949 25.9425C5.75831 25.8073 5.83774 25.628 5.83774 25.3985C5.83774 25.301 5.82119 25.2098 5.79141 25.1249C5.76161 25.04 5.70534 24.952 5.62591 24.8608C5.54645 24.7727 5.43393 24.6721 5.29159 24.5683C5.15255 24.4645 4.97052 24.3325 4.74534 24.1783C4.57651 24.0651 4.40772 23.9456 4.24546 23.826C4.08327 23.7034 3.93762 23.5744 3.80178 23.436C3.66938 23.2976 3.56347 23.1436 3.4807 22.9707C3.40124 22.8009 3.35824 22.6027 3.35824 22.3857C3.35824 22.1341 3.41452 21.9013 3.52374 21.6937C3.63295 21.486 3.78523 21.31 3.97725 21.1623C4.16923 21.0145 4.39774 20.9013 4.66893 20.8197C4.93704 20.7379 5.22819 20.697 5.5461 20.697C5.88042 20.697 6.2016 20.7379 6.51249 20.8228C6.82363 20.9077 7.11179 21.0304 7.37983 21.1938L6.87994 21.9612C6.53902 21.7347 6.17807 21.6185 5.80079 21.6185C5.57238 21.6185 5.38029 21.6751 5.23135 21.7883C5.0824 21.9015 5.00624 22.043 5.00624 22.216C5.00624 22.3795 5.07246 22.5273 5.20486 22.6563C5.33726 22.7884 5.56563 22.9676 5.89022 23.2066C6.21794 23.4331 6.48952 23.6343 6.70135 23.804C6.91651 23.9738 7.08531 24.1373 7.21107 24.2883C7.33686 24.4393 7.41963 24.5902 7.46926 24.7473C7.5189 24.9077 7.54208 25.0775 7.54208 25.2663L7.54223 25.2665ZM13.219 23.8295C13.219 24.0654 13.1926 24.3202 13.1396 24.5935C13.0899 24.8671 13.0006 25.1189 12.8748 25.3515C12.749 25.5842 12.5868 25.7762 12.3848 25.9239C12.1828 26.0748 11.9246 26.1503 11.6169 26.1503C11.1005 26.1503 10.6933 25.9553 10.3954 25.5623C10.0975 25.1723 9.94858 24.6346 9.94858 23.9523C9.94858 23.2509 10.0975 22.6976 10.4021 22.2856C10.7033 21.8736 11.1138 21.6693 11.6302 21.6693C12.1202 21.6693 12.5074 21.8642 12.7919 22.2479C13.0766 22.6346 13.2191 23.1629 13.2191 23.8296L13.219 23.8295ZM15.0131 23.7698C15.0131 23.3138 14.9435 22.8988 14.8078 22.5278C14.6688 22.1534 14.4768 21.8328 14.2219 21.5624C13.967 21.292 13.669 21.0844 13.3215 20.9334C12.9741 20.7824 12.5902 20.707 12.1697 20.707C11.7063 20.707 11.2992 20.7919 10.9482 20.9555C10.5974 21.1221 10.2696 21.3831 9.97166 21.7415L9.96176 20.8515H8.31V29.9981H9.9586V26.1348C10.1208 26.314 10.2763 26.465 10.4286 26.5875C10.5776 26.7101 10.7298 26.8107 10.8853 26.8862C11.0408 26.9617 11.203 27.0183 11.375 27.0497C11.5471 27.0812 11.7326 27.0969 11.9279 27.0969C12.3649 27.0969 12.7752 27.012 13.1525 26.8485C13.5298 26.6818 13.8575 26.4491 14.1322 26.1471C14.407 25.8451 14.6223 25.4931 14.7779 25.0938C14.9368 24.6911 15.0129 24.2478 15.0129 23.7698L15.0131 23.7698ZM15.748 26.9491H17.4426V17.9991H15.748V26.9491ZM24.6707 26.9522V20.8456H22.9761V24.1316C22.9761 24.424 22.9628 24.6506 22.9363 24.8109C22.9098 24.9713 22.8668 25.1128 22.8072 25.2449C22.5689 25.7479 22.1285 26.0029 21.4899 26.0029C20.99 26.0029 20.6426 25.8331 20.4438 25.4902C20.3643 25.3613 20.3114 25.2135 20.2816 25.0499C20.2518 24.8864 20.2352 24.6506 20.2352 24.3392V20.8459H18.5406V24.3159C18.5406 24.5517 18.5439 24.7529 18.5473 24.9132C18.5506 25.0736 18.5638 25.2214 18.5804 25.3472C18.5969 25.473 18.6168 25.5862 18.6399 25.6839C18.6598 25.7814 18.6929 25.8757 18.7359 25.9638C18.8915 26.3381 19.1399 26.6211 19.4874 26.8128C19.8349 27.0046 20.2619 27.0989 20.765 27.0989C21.2185 27.0989 21.619 27.0234 21.9632 26.8725C22.3075 26.7216 22.6419 26.4762 22.9662 26.1335L22.9695 26.9512L24.6708 26.9543L24.6707 26.9522ZM31.974 26.9491V23.4858C31.974 23.2499 31.9707 23.0488 31.9673 22.8821C31.964 22.7154 31.9541 22.5708 31.9342 22.4481C31.9177 22.3254 31.8945 22.2185 31.8713 22.1273C31.8449 22.033 31.8151 21.9418 31.782 21.8537C31.6264 21.4891 31.378 21.2061 31.0306 21.0077C30.6832 20.8094 30.256 20.709 29.7494 20.709C29.2959 20.709 28.8954 20.7845 28.5512 20.9354C28.2069 21.0863 27.8725 21.3347 27.5483 21.6744L27.545 20.8567H25.8402V26.9501H27.5481V23.6607C27.5481 23.3777 27.5581 23.1544 27.5812 22.9971C27.6011 22.8398 27.6441 22.692 27.7037 22.5504C27.8129 22.3051 27.9851 22.1227 28.2134 21.9971C28.4418 21.8714 28.7133 21.8084 29.0309 21.8084C29.5308 21.8084 29.8782 21.9782 30.077 22.3211C30.1532 22.45 30.2061 22.5978 30.2359 22.7581C30.2657 22.9185 30.2822 23.1574 30.2822 23.4657V26.9424L31.9737 26.9456L31.974 26.9491ZM38.9857 26.5464L36.4041 23.4991L38.5852 21.2791L37.3009 20.7541L35.0302 23.2541H34.8514V18.0008H33.1435V26.9508H34.8514V23.7088L37.4067 27.0721L38.9854 26.5468L38.9857 26.5464ZM45.5864 24.3578V23.3608L40.4505 20.9141V22.0114L44.4306 23.8511L40.4505 25.7158V26.7881L45.5864 24.3574V24.3578ZM40.9494 19.3311C40.635 19.3311 40.3799 19.5764 40.3799 19.8784C40.3799 20.1866 40.635 20.4288 40.9494 20.4288C41.2673 20.4288 41.5188 20.1866 41.5188 19.8784C41.5188 19.5734 41.2673 19.3311 40.9494 19.3311ZM40.9529 19.416C41.2076 19.416 41.4127 19.6235 41.4127 19.8813C41.4127 20.1392 41.2076 20.3467 40.9529 20.3437C40.6947 20.3437 40.4892 20.1393 40.4892 19.8783C40.4892 19.6236 40.6947 19.416 40.9529 19.416ZM40.8436 19.935H40.9128C40.9957 19.935 41.0354 19.9633 41.0519 20.0419C41.0653 20.1237 41.0818 20.1772 41.0952 20.196H41.2044C41.1942 20.1772 41.1777 20.1394 41.1647 20.0451C41.1514 19.9539 41.1148 19.9067 41.0555 19.8973V19.891C41.125 19.8721 41.1812 19.8218 41.1812 19.7432C41.1812 19.6866 41.1612 19.6426 41.1215 19.6174C41.0818 19.5891 41.0189 19.5702 40.923 19.5702C40.8468 19.5702 40.7938 19.5765 40.7411 19.586V20.196H40.8436V19.935V19.935ZM40.8436 19.652C40.8601 19.6488 40.8833 19.6457 40.9163 19.6457C41.0323 19.6457 41.072 19.6992 41.072 19.7526C41.072 19.8281 40.9989 19.8564 40.9163 19.8564H40.8436V19.652V19.652Z" fill="#0C1724"/>
</g>
<defs>
<clipPath id="clip0_0_1">
<rect width="42.8571" height="12" fill="white" transform="translate(3 18)"/>
</clipPath>
</defs>
</svg>
